<svg xmlns="http://www.w3.org/2000/svg" viewBox="0 0 120 120">
  <!-- Black circular background -->
  <circle cx="60" cy="60" r="60" fill="#000000"/>
  
  <!-- Horizontal bars forming S shape (from top to bottom) -->
  <rect x="45" y="25" width="50" height="10" fill="url(#gradient1)"/>
  <rect x="30" y="40" width="40" height="10" fill="url(#gradient1)"/>
  <rect x="40" y="55" width="45" height="10" fill="url(#gradient1)"/>
  <rect x="50" y="70" width="45" height="10" fill="url(#gradient1)"/>
  <rect x="35" y="85" width="40" height="10" fill="url(#gradient1)"/>
  
  <!-- Overlay with opacity -->
  <rect x="45" y="25" width="50" height="10" fill="url(#gradient2)" fill-opacity="0.2"/>
  <rect x="30" y="40" width="40" height="10" fill="url(#gradient2)" fill-opacity="0.2"/>
  <rect x="40" y="55" width="45" height="10" fill="url(#gradient2)" fill-opacity="0.2"/>
  <rect x="50" y="70" width="45" height="10" fill="url(#gradient2)" fill-opacity="0.2"/>
  <rect x="35" y="85" width="40" height="10" fill="url(#gradient2)" fill-opacity="0.2"/>
  
  <!-- Data points as circles at the end of bars -->
  <circle cx="45" cy="30" r="4" fill="#4B9FFF"/>
  <circle cx="30" cy="45" r="4" fill="#4B9FFF"/>
  <circle cx="40" cy="60" r="4" fill="#4B9FFF"/>
  <circle cx="50" cy="75" r="4" fill="#4B9FFF"/>
  <circle cx="35" cy="90" r="4" fill="#4B9FFF"/>
  
  <defs>
    <!-- Main gradient -->
    <linearGradient id="gradient1" x1="90" y1="25" x2="25" y2="90" gradientUnits="userSpaceOnUse">
      <stop offset="0" stop-color="#0052CC"/>
      <stop offset="1" stop-color="#4B9FFF"/>
    </linearGradient>
    
    <!-- Overlay gradient -->
    <linearGradient id="gradient2" x1="90" y1="25" x2="25" y2="90" gradientUnits="userSpaceOnUse">
      <stop offset="0" stop-color="#FFFFFF"/>
      <stop offset="1" stop-color="#FFFFFF" stop-opacity="0"/>
    </linearGradient>
  </defs>
</svg>
